G04 #@! TF.GenerationSoftware,KiCad,Pcbnew,(5.1.2)-2*
G04 #@! TF.CreationDate,2019-07-01T20:42:14+08:00*
G04 #@! TF.ProjectId,test,74657374-2e6b-4696-9361-645f70636258,a*
G04 #@! TF.SameCoordinates,Original*
G04 #@! TF.FileFunction,Soldermask,Top*
G04 #@! TF.FilePolarity,Negative*
%FSLAX46Y46*%
G04 Gerber Fmt 4.6, Leading zero omitted, Abs format (unit mm)*
G04 Created by KiCad (PCBNEW (5.1.2)-2) date 2019-07-01 20:42:14*
%MOMM*%
%LPD*%
G04 APERTURE LIST*
%ADD10C,0.100000*%
G04 APERTURE END LIST*
D10*
G36*
X149084591Y-113143085D02*
G01*
X149118569Y-113153393D01*
X149149890Y-113170134D01*
X149177339Y-113192661D01*
X149199866Y-113220110D01*
X149216607Y-113251431D01*
X149226915Y-113285409D01*
X149231000Y-113326890D01*
X149231000Y-114003110D01*
X149226915Y-114044591D01*
X149216607Y-114078569D01*
X149199866Y-114109890D01*
X149177339Y-114137339D01*
X149149890Y-114159866D01*
X149118569Y-114176607D01*
X149084591Y-114186915D01*
X149043110Y-114191000D01*
X148441890Y-114191000D01*
X148400409Y-114186915D01*
X148366431Y-114176607D01*
X148335110Y-114159866D01*
X148307661Y-114137339D01*
X148285134Y-114109890D01*
X148268393Y-114078569D01*
X148258085Y-114044591D01*
X148254000Y-114003110D01*
X148254000Y-113326890D01*
X148258085Y-113285409D01*
X148268393Y-113251431D01*
X148285134Y-113220110D01*
X148307661Y-113192661D01*
X148335110Y-113170134D01*
X148366431Y-113153393D01*
X148400409Y-113143085D01*
X148441890Y-113139000D01*
X149043110Y-113139000D01*
X149084591Y-113143085D01*
X149084591Y-113143085D01*
G37*
G36*
X147509591Y-113143085D02*
G01*
X147543569Y-113153393D01*
X147574890Y-113170134D01*
X147602339Y-113192661D01*
X147624866Y-113220110D01*
X147641607Y-113251431D01*
X147651915Y-113285409D01*
X147656000Y-113326890D01*
X147656000Y-114003110D01*
X147651915Y-114044591D01*
X147641607Y-114078569D01*
X147624866Y-114109890D01*
X147602339Y-114137339D01*
X147574890Y-114159866D01*
X147543569Y-114176607D01*
X147509591Y-114186915D01*
X147468110Y-114191000D01*
X146866890Y-114191000D01*
X146825409Y-114186915D01*
X146791431Y-114176607D01*
X146760110Y-114159866D01*
X146732661Y-114137339D01*
X146710134Y-114109890D01*
X146693393Y-114078569D01*
X146683085Y-114044591D01*
X146679000Y-114003110D01*
X146679000Y-113326890D01*
X146683085Y-113285409D01*
X146693393Y-113251431D01*
X146710134Y-113220110D01*
X146732661Y-113192661D01*
X146760110Y-113170134D01*
X146791431Y-113153393D01*
X146825409Y-113143085D01*
X146866890Y-113139000D01*
X147468110Y-113139000D01*
X147509591Y-113143085D01*
X147509591Y-113143085D01*
G37*
G36*
X147509591Y-109968085D02*
G01*
X147543569Y-109978393D01*
X147574890Y-109995134D01*
X147602339Y-110017661D01*
X147624866Y-110045110D01*
X147641607Y-110076431D01*
X147651915Y-110110409D01*
X147656000Y-110151890D01*
X147656000Y-110828110D01*
X147651915Y-110869591D01*
X147641607Y-110903569D01*
X147624866Y-110934890D01*
X147602339Y-110962339D01*
X147574890Y-110984866D01*
X147543569Y-111001607D01*
X147509591Y-111011915D01*
X147468110Y-111016000D01*
X146866890Y-111016000D01*
X146825409Y-111011915D01*
X146791431Y-111001607D01*
X146760110Y-110984866D01*
X146732661Y-110962339D01*
X146710134Y-110934890D01*
X146693393Y-110903569D01*
X146683085Y-110869591D01*
X146679000Y-110828110D01*
X146679000Y-110151890D01*
X146683085Y-110110409D01*
X146693393Y-110076431D01*
X146710134Y-110045110D01*
X146732661Y-110017661D01*
X146760110Y-109995134D01*
X146791431Y-109978393D01*
X146825409Y-109968085D01*
X146866890Y-109964000D01*
X147468110Y-109964000D01*
X147509591Y-109968085D01*
X147509591Y-109968085D01*
G37*
G36*
X149084591Y-109968085D02*
G01*
X149118569Y-109978393D01*
X149149890Y-109995134D01*
X149177339Y-110017661D01*
X149199866Y-110045110D01*
X149216607Y-110076431D01*
X149226915Y-110110409D01*
X149231000Y-110151890D01*
X149231000Y-110828110D01*
X149226915Y-110869591D01*
X149216607Y-110903569D01*
X149199866Y-110934890D01*
X149177339Y-110962339D01*
X149149890Y-110984866D01*
X149118569Y-111001607D01*
X149084591Y-111011915D01*
X149043110Y-111016000D01*
X148441890Y-111016000D01*
X148400409Y-111011915D01*
X148366431Y-111001607D01*
X148335110Y-110984866D01*
X148307661Y-110962339D01*
X148285134Y-110934890D01*
X148268393Y-110903569D01*
X148258085Y-110869591D01*
X148254000Y-110828110D01*
X148254000Y-110151890D01*
X148258085Y-110110409D01*
X148268393Y-110076431D01*
X148285134Y-110045110D01*
X148307661Y-110017661D01*
X148335110Y-109995134D01*
X148366431Y-109978393D01*
X148400409Y-109968085D01*
X148441890Y-109964000D01*
X149043110Y-109964000D01*
X149084591Y-109968085D01*
X149084591Y-109968085D01*
G37*
G36*
X151914929Y-107786765D02*
G01*
X151936010Y-107793161D01*
X151955446Y-107803549D01*
X151972477Y-107817525D01*
X151986453Y-107834556D01*
X151996841Y-107853992D01*
X152003237Y-107875073D01*
X152006001Y-107903141D01*
X152006001Y-108366861D01*
X152003237Y-108394929D01*
X151996841Y-108416010D01*
X151986453Y-108435446D01*
X151972477Y-108452477D01*
X151955446Y-108466453D01*
X151936010Y-108476841D01*
X151914929Y-108483237D01*
X151886861Y-108486001D01*
X150073141Y-108486001D01*
X150045073Y-108483237D01*
X150023992Y-108476841D01*
X150004556Y-108466453D01*
X149987525Y-108452477D01*
X149973549Y-108435446D01*
X149963161Y-108416010D01*
X149956765Y-108394929D01*
X149954001Y-108366861D01*
X149954001Y-107903141D01*
X149956765Y-107875073D01*
X149963161Y-107853992D01*
X149973549Y-107834556D01*
X149987525Y-107817525D01*
X150004556Y-107803549D01*
X150023992Y-107793161D01*
X150045073Y-107786765D01*
X150073141Y-107784001D01*
X151886861Y-107784001D01*
X151914929Y-107786765D01*
X151914929Y-107786765D01*
G37*
G36*
X146964929Y-107786765D02*
G01*
X146986010Y-107793161D01*
X147005446Y-107803549D01*
X147022477Y-107817525D01*
X147036453Y-107834556D01*
X147046841Y-107853992D01*
X147053237Y-107875073D01*
X147056001Y-107903141D01*
X147056001Y-108366861D01*
X147053237Y-108394929D01*
X147046841Y-108416010D01*
X147036453Y-108435446D01*
X147022477Y-108452477D01*
X147005446Y-108466453D01*
X146986010Y-108476841D01*
X146964929Y-108483237D01*
X146936861Y-108486001D01*
X145123141Y-108486001D01*
X145095073Y-108483237D01*
X145073992Y-108476841D01*
X145054556Y-108466453D01*
X145037525Y-108452477D01*
X145023549Y-108435446D01*
X145013161Y-108416010D01*
X145006765Y-108394929D01*
X145004001Y-108366861D01*
X145004001Y-107903141D01*
X145006765Y-107875073D01*
X145013161Y-107853992D01*
X145023549Y-107834556D01*
X145037525Y-107817525D01*
X145054556Y-107803549D01*
X145073992Y-107793161D01*
X145095073Y-107786765D01*
X145123141Y-107784001D01*
X146936861Y-107784001D01*
X146964929Y-107786765D01*
X146964929Y-107786765D01*
G37*
G36*
X151914929Y-106516765D02*
G01*
X151936010Y-106523161D01*
X151955446Y-106533549D01*
X151972477Y-106547525D01*
X151986453Y-106564556D01*
X151996841Y-106583992D01*
X152003237Y-106605073D01*
X152006001Y-106633141D01*
X152006001Y-107096861D01*
X152003237Y-107124929D01*
X151996841Y-107146010D01*
X151986453Y-107165446D01*
X151972477Y-107182477D01*
X151955446Y-107196453D01*
X151936010Y-107206841D01*
X151914929Y-107213237D01*
X151886861Y-107216001D01*
X150073141Y-107216001D01*
X150045073Y-107213237D01*
X150023992Y-107206841D01*
X150004556Y-107196453D01*
X149987525Y-107182477D01*
X149973549Y-107165446D01*
X149963161Y-107146010D01*
X149956765Y-107124929D01*
X149954001Y-107096861D01*
X149954001Y-106633141D01*
X149956765Y-106605073D01*
X149963161Y-106583992D01*
X149973549Y-106564556D01*
X149987525Y-106547525D01*
X150004556Y-106533549D01*
X150023992Y-106523161D01*
X150045073Y-106516765D01*
X150073141Y-106514001D01*
X151886861Y-106514001D01*
X151914929Y-106516765D01*
X151914929Y-106516765D01*
G37*
G36*
X146964929Y-106516765D02*
G01*
X146986010Y-106523161D01*
X147005446Y-106533549D01*
X147022477Y-106547525D01*
X147036453Y-106564556D01*
X147046841Y-106583992D01*
X147053237Y-106605073D01*
X147056001Y-106633141D01*
X147056001Y-107096861D01*
X147053237Y-107124929D01*
X147046841Y-107146010D01*
X147036453Y-107165446D01*
X147022477Y-107182477D01*
X147005446Y-107196453D01*
X146986010Y-107206841D01*
X146964929Y-107213237D01*
X146936861Y-107216001D01*
X145123141Y-107216001D01*
X145095073Y-107213237D01*
X145073992Y-107206841D01*
X145054556Y-107196453D01*
X145037525Y-107182477D01*
X145023549Y-107165446D01*
X145013161Y-107146010D01*
X145006765Y-107124929D01*
X145004001Y-107096861D01*
X145004001Y-106633141D01*
X145006765Y-106605073D01*
X145013161Y-106583992D01*
X145023549Y-106564556D01*
X145037525Y-106547525D01*
X145054556Y-106533549D01*
X145073992Y-106523161D01*
X145095073Y-106516765D01*
X145123141Y-106514001D01*
X146936861Y-106514001D01*
X146964929Y-106516765D01*
X146964929Y-106516765D01*
G37*
G36*
X155954591Y-105713085D02*
G01*
X155988569Y-105723393D01*
X156019890Y-105740134D01*
X156047339Y-105762661D01*
X156069866Y-105790110D01*
X156086607Y-105821431D01*
X156096915Y-105855409D01*
X156101000Y-105896890D01*
X156101000Y-106498110D01*
X156096915Y-106539591D01*
X156086607Y-106573569D01*
X156069866Y-106604890D01*
X156047339Y-106632339D01*
X156019890Y-106654866D01*
X155988569Y-106671607D01*
X155954591Y-106681915D01*
X155913110Y-106686000D01*
X155236890Y-106686000D01*
X155195409Y-106681915D01*
X155161431Y-106671607D01*
X155130110Y-106654866D01*
X155102661Y-106632339D01*
X155080134Y-106604890D01*
X155063393Y-106573569D01*
X155053085Y-106539591D01*
X155049000Y-106498110D01*
X155049000Y-105896890D01*
X155053085Y-105855409D01*
X155063393Y-105821431D01*
X155080134Y-105790110D01*
X155102661Y-105762661D01*
X155130110Y-105740134D01*
X155161431Y-105723393D01*
X155195409Y-105713085D01*
X155236890Y-105709000D01*
X155913110Y-105709000D01*
X155954591Y-105713085D01*
X155954591Y-105713085D01*
G37*
G36*
X158494591Y-105713085D02*
G01*
X158528569Y-105723393D01*
X158559890Y-105740134D01*
X158587339Y-105762661D01*
X158609866Y-105790110D01*
X158626607Y-105821431D01*
X158636915Y-105855409D01*
X158641000Y-105896890D01*
X158641000Y-106498110D01*
X158636915Y-106539591D01*
X158626607Y-106573569D01*
X158609866Y-106604890D01*
X158587339Y-106632339D01*
X158559890Y-106654866D01*
X158528569Y-106671607D01*
X158494591Y-106681915D01*
X158453110Y-106686000D01*
X157776890Y-106686000D01*
X157735409Y-106681915D01*
X157701431Y-106671607D01*
X157670110Y-106654866D01*
X157642661Y-106632339D01*
X157620134Y-106604890D01*
X157603393Y-106573569D01*
X157593085Y-106539591D01*
X157589000Y-106498110D01*
X157589000Y-105896890D01*
X157593085Y-105855409D01*
X157603393Y-105821431D01*
X157620134Y-105790110D01*
X157642661Y-105762661D01*
X157670110Y-105740134D01*
X157701431Y-105723393D01*
X157735409Y-105713085D01*
X157776890Y-105709000D01*
X158453110Y-105709000D01*
X158494591Y-105713085D01*
X158494591Y-105713085D01*
G37*
G36*
X151914929Y-105246765D02*
G01*
X151936010Y-105253161D01*
X151955446Y-105263549D01*
X151972477Y-105277525D01*
X151986453Y-105294556D01*
X151996841Y-105313992D01*
X152003237Y-105335073D01*
X152006001Y-105363141D01*
X152006001Y-105826861D01*
X152003237Y-105854929D01*
X151996841Y-105876010D01*
X151986453Y-105895446D01*
X151972477Y-105912477D01*
X151955446Y-105926453D01*
X151936010Y-105936841D01*
X151914929Y-105943237D01*
X151886861Y-105946001D01*
X150073141Y-105946001D01*
X150045073Y-105943237D01*
X150023992Y-105936841D01*
X150004556Y-105926453D01*
X149987525Y-105912477D01*
X149973549Y-105895446D01*
X149963161Y-105876010D01*
X149956765Y-105854929D01*
X149954001Y-105826861D01*
X149954001Y-105363141D01*
X149956765Y-105335073D01*
X149963161Y-105313992D01*
X149973549Y-105294556D01*
X149987525Y-105277525D01*
X150004556Y-105263549D01*
X150023992Y-105253161D01*
X150045073Y-105246765D01*
X150073141Y-105244001D01*
X151886861Y-105244001D01*
X151914929Y-105246765D01*
X151914929Y-105246765D01*
G37*
G36*
X146964929Y-105246765D02*
G01*
X146986010Y-105253161D01*
X147005446Y-105263549D01*
X147022477Y-105277525D01*
X147036453Y-105294556D01*
X147046841Y-105313992D01*
X147053237Y-105335073D01*
X147056001Y-105363141D01*
X147056001Y-105826861D01*
X147053237Y-105854929D01*
X147046841Y-105876010D01*
X147036453Y-105895446D01*
X147022477Y-105912477D01*
X147005446Y-105926453D01*
X146986010Y-105936841D01*
X146964929Y-105943237D01*
X146936861Y-105946001D01*
X145123141Y-105946001D01*
X145095073Y-105943237D01*
X145073992Y-105936841D01*
X145054556Y-105926453D01*
X145037525Y-105912477D01*
X145023549Y-105895446D01*
X145013161Y-105876010D01*
X145006765Y-105854929D01*
X145004001Y-105826861D01*
X145004001Y-105363141D01*
X145006765Y-105335073D01*
X145013161Y-105313992D01*
X145023549Y-105294556D01*
X145037525Y-105277525D01*
X145054556Y-105263549D01*
X145073992Y-105253161D01*
X145095073Y-105246765D01*
X145123141Y-105244001D01*
X146936861Y-105244001D01*
X146964929Y-105246765D01*
X146964929Y-105246765D01*
G37*
G36*
X155954591Y-104138085D02*
G01*
X155988569Y-104148393D01*
X156019890Y-104165134D01*
X156047339Y-104187661D01*
X156069866Y-104215110D01*
X156086607Y-104246431D01*
X156096915Y-104280409D01*
X156101000Y-104321890D01*
X156101000Y-104923110D01*
X156096915Y-104964591D01*
X156086607Y-104998569D01*
X156069866Y-105029890D01*
X156047339Y-105057339D01*
X156019890Y-105079866D01*
X155988569Y-105096607D01*
X155954591Y-105106915D01*
X155913110Y-105111000D01*
X155236890Y-105111000D01*
X155195409Y-105106915D01*
X155161431Y-105096607D01*
X155130110Y-105079866D01*
X155102661Y-105057339D01*
X155080134Y-105029890D01*
X155063393Y-104998569D01*
X155053085Y-104964591D01*
X155049000Y-104923110D01*
X155049000Y-104321890D01*
X155053085Y-104280409D01*
X155063393Y-104246431D01*
X155080134Y-104215110D01*
X155102661Y-104187661D01*
X155130110Y-104165134D01*
X155161431Y-104148393D01*
X155195409Y-104138085D01*
X155236890Y-104134000D01*
X155913110Y-104134000D01*
X155954591Y-104138085D01*
X155954591Y-104138085D01*
G37*
G36*
X158494591Y-104138085D02*
G01*
X158528569Y-104148393D01*
X158559890Y-104165134D01*
X158587339Y-104187661D01*
X158609866Y-104215110D01*
X158626607Y-104246431D01*
X158636915Y-104280409D01*
X158641000Y-104321890D01*
X158641000Y-104923110D01*
X158636915Y-104964591D01*
X158626607Y-104998569D01*
X158609866Y-105029890D01*
X158587339Y-105057339D01*
X158559890Y-105079866D01*
X158528569Y-105096607D01*
X158494591Y-105106915D01*
X158453110Y-105111000D01*
X157776890Y-105111000D01*
X157735409Y-105106915D01*
X157701431Y-105096607D01*
X157670110Y-105079866D01*
X157642661Y-105057339D01*
X157620134Y-105029890D01*
X157603393Y-104998569D01*
X157593085Y-104964591D01*
X157589000Y-104923110D01*
X157589000Y-104321890D01*
X157593085Y-104280409D01*
X157603393Y-104246431D01*
X157620134Y-104215110D01*
X157642661Y-104187661D01*
X157670110Y-104165134D01*
X157701431Y-104148393D01*
X157735409Y-104138085D01*
X157776890Y-104134000D01*
X158453110Y-104134000D01*
X158494591Y-104138085D01*
X158494591Y-104138085D01*
G37*
G36*
X146964929Y-103976765D02*
G01*
X146986010Y-103983161D01*
X147005446Y-103993549D01*
X147022477Y-104007525D01*
X147036453Y-104024556D01*
X147046841Y-104043992D01*
X147053237Y-104065073D01*
X147056001Y-104093141D01*
X147056001Y-104556861D01*
X147053237Y-104584929D01*
X147046841Y-104606010D01*
X147036453Y-104625446D01*
X147022477Y-104642477D01*
X147005446Y-104656453D01*
X146986010Y-104666841D01*
X146964929Y-104673237D01*
X146936861Y-104676001D01*
X145123141Y-104676001D01*
X145095073Y-104673237D01*
X145073992Y-104666841D01*
X145054556Y-104656453D01*
X145037525Y-104642477D01*
X145023549Y-104625446D01*
X145013161Y-104606010D01*
X145006765Y-104584929D01*
X145004001Y-104556861D01*
X145004001Y-104093141D01*
X145006765Y-104065073D01*
X145013161Y-104043992D01*
X145023549Y-104024556D01*
X145037525Y-104007525D01*
X145054556Y-103993549D01*
X145073992Y-103983161D01*
X145095073Y-103976765D01*
X145123141Y-103974001D01*
X146936861Y-103974001D01*
X146964929Y-103976765D01*
X146964929Y-103976765D01*
G37*
G36*
X151914929Y-103976765D02*
G01*
X151936010Y-103983161D01*
X151955446Y-103993549D01*
X151972477Y-104007525D01*
X151986453Y-104024556D01*
X151996841Y-104043992D01*
X152003237Y-104065073D01*
X152006001Y-104093141D01*
X152006001Y-104556861D01*
X152003237Y-104584929D01*
X151996841Y-104606010D01*
X151986453Y-104625446D01*
X151972477Y-104642477D01*
X151955446Y-104656453D01*
X151936010Y-104666841D01*
X151914929Y-104673237D01*
X151886861Y-104676001D01*
X150073141Y-104676001D01*
X150045073Y-104673237D01*
X150023992Y-104666841D01*
X150004556Y-104656453D01*
X149987525Y-104642477D01*
X149973549Y-104625446D01*
X149963161Y-104606010D01*
X149956765Y-104584929D01*
X149954001Y-104556861D01*
X149954001Y-104093141D01*
X149956765Y-104065073D01*
X149963161Y-104043992D01*
X149973549Y-104024556D01*
X149987525Y-104007525D01*
X150004556Y-103993549D01*
X150023992Y-103983161D01*
X150045073Y-103976765D01*
X150073141Y-103974001D01*
X151886861Y-103974001D01*
X151914929Y-103976765D01*
X151914929Y-103976765D01*
G37*
G36*
X150126000Y-101866000D02*
G01*
X148324000Y-101866000D01*
X148324000Y-100064000D01*
X150126000Y-100064000D01*
X150126000Y-101866000D01*
X150126000Y-101866000D01*
G37*
G36*
X146795442Y-100070518D02*
G01*
X146861627Y-100077037D01*
X147031466Y-100128557D01*
X147187991Y-100212222D01*
X147223729Y-100241552D01*
X147325186Y-100324814D01*
X147408448Y-100426271D01*
X147437778Y-100462009D01*
X147521443Y-100618534D01*
X147572963Y-100788373D01*
X147590359Y-100965000D01*
X147572963Y-101141627D01*
X147521443Y-101311466D01*
X147437778Y-101467991D01*
X147408448Y-101503729D01*
X147325186Y-101605186D01*
X147223729Y-101688448D01*
X147187991Y-101717778D01*
X147031466Y-101801443D01*
X146861627Y-101852963D01*
X146795443Y-101859481D01*
X146729260Y-101866000D01*
X146640740Y-101866000D01*
X146574558Y-101859482D01*
X146508373Y-101852963D01*
X146338534Y-101801443D01*
X146182009Y-101717778D01*
X146146271Y-101688448D01*
X146044814Y-101605186D01*
X145961552Y-101503729D01*
X145932222Y-101467991D01*
X145848557Y-101311466D01*
X145797037Y-101141627D01*
X145779641Y-100965000D01*
X145797037Y-100788373D01*
X145848557Y-100618534D01*
X145932222Y-100462009D01*
X145961552Y-100426271D01*
X146044814Y-100324814D01*
X146146271Y-100241552D01*
X146182009Y-100212222D01*
X146338534Y-100128557D01*
X146508373Y-100077037D01*
X146574557Y-100070519D01*
X146640740Y-100064000D01*
X146729260Y-100064000D01*
X146795442Y-100070518D01*
X146795442Y-100070518D01*
G37*
M02*
